<svg xmlns="http://www.w3.org/2000/svg" width="157" height="122.111" viewBox="0 0 157 122.111">
  <path id="about" d="M143.917,32H13.083A13.087,13.087,0,0,0,0,45.083v95.944a13.087,13.087,0,0,0,13.083,13.083H143.917A13.087,13.087,0,0,0,157,141.028V45.083A13.087,13.087,0,0,0,143.917,32Zm0,109.028H13.083V45.083H143.917ZM56.694,93.056A17.444,17.444,0,1,0,39.25,75.611,17.461,17.461,0,0,0,56.694,93.056ZM32.272,127.944H81.117c3.38,0,6.106-2.344,6.106-5.233v-5.233c0-8.668-8.2-15.7-18.317-15.7-2.944,0-5.1,2.181-12.211,2.181-7.332,0-9.1-2.181-12.211-2.181-10.112,0-18.317,7.032-18.317,15.7v5.233c0,2.889,2.726,5.233,6.106,5.233ZM98.125,110.5h30.528a2.187,2.187,0,0,0,2.181-2.181v-4.361a2.187,2.187,0,0,0-2.181-2.181H98.125a2.187,2.187,0,0,0-2.181,2.181v4.361A2.187,2.187,0,0,0,98.125,110.5Zm0-17.444h30.528a2.187,2.187,0,0,0,2.181-2.181V86.514a2.187,2.187,0,0,0-2.181-2.181H98.125a2.187,2.187,0,0,0-2.181,2.181v4.361A2.187,2.187,0,0,0,98.125,93.056Zm0-17.444h30.528a2.187,2.187,0,0,0,2.181-2.181V69.069a2.187,2.187,0,0,0-2.181-2.181H98.125a2.187,2.187,0,0,0-2.181,2.181v4.361A2.187,2.187,0,0,0,98.125,75.611Z" transform="translate(0 -32)" fill="#7a49a3"/>
</svg>
