<svg xmlns="http://www.w3.org/2000/svg" width="76.319" height="122.11" viewBox="0 0 76.319 122.11">
  <path id="contato" d="M192.871,0H139.448A11.451,11.451,0,0,0,128,11.448v99.214a11.451,11.451,0,0,0,11.448,11.448h53.423a11.451,11.451,0,0,0,11.448-11.448V11.448A11.451,11.451,0,0,0,192.871,0ZM166.159,114.478a7.632,7.632,0,1,1,7.632-7.632A7.624,7.624,0,0,1,166.159,114.478Zm26.711-25.758a2.87,2.87,0,0,1-2.862,2.862h-47.7a2.87,2.87,0,0,1-2.862-2.862V14.31a2.87,2.87,0,0,1,2.862-2.862h47.7a2.87,2.87,0,0,1,2.862,2.862Z" transform="translate(-128)" fill="#7a49a3"/>
</svg>
