<svg xmlns="http://www.w3.org/2000/svg" width="39" height="39" viewBox="0 0 39 39">
  <path id="git" d="M34.821,0H4.179A4.18,4.18,0,0,0,0,4.179V34.821A4.18,4.18,0,0,0,4.179,39H34.821A4.18,4.18,0,0,0,39,34.821V4.179A4.18,4.18,0,0,0,34.821,0ZM24.14,33.4c-.731.131-1-.322-1-.7,0-.47.017-2.873.017-4.814a3.392,3.392,0,0,0-.984-2.673c3.221-.357,6.616-.8,6.616-6.364a4.469,4.469,0,0,0-1.489-3.4,5.445,5.445,0,0,0-.148-3.917c-1.21-.374-3.978,1.558-3.978,1.558a13.695,13.695,0,0,0-7.243,0s-2.768-1.933-3.978-1.558a5.4,5.4,0,0,0-.148,3.917,4.372,4.372,0,0,0-1.358,3.4c0,5.537,3.247,6.007,6.468,6.364a3.155,3.155,0,0,0-.923,1.941,3.054,3.054,0,0,1-4.2-1.21,3.033,3.033,0,0,0-2.22-1.489c-1.41-.017-.1.888-.1.888.94.435,1.6,2.107,1.6,2.107.844,2.585,4.884,1.715,4.884,1.715,0,1.21.017,3.177.017,3.534,0,.374-.261.827-1,.7A14.443,14.443,0,0,1,5.206,19.622a13.815,13.815,0,0,1,14.1-14.059A14.124,14.124,0,0,1,33.777,19.622,14.31,14.31,0,0,1,24.14,33.4ZM15.6,28.083c-.165.035-.322-.035-.34-.148-.017-.131.1-.244.261-.279.165-.017.322.052.34.165S15.774,28.049,15.6,28.083Zm-.827-.078c0,.113-.131.209-.3.209-.192.017-.322-.078-.322-.209,0-.113.131-.209.3-.209C14.616,27.779,14.773,27.875,14.773,28.005Zm-1.193-.1c-.035.113-.209.165-.357.113-.165-.035-.279-.165-.244-.279s.209-.165.357-.131C13.511,27.666,13.624,27.8,13.58,27.909Zm-1.071-.47c-.078.1-.244.078-.374-.052-.131-.113-.165-.279-.078-.357.078-.1.244-.078.374.052C12.544,27.2,12.588,27.37,12.51,27.439Zm-.792-.792c-.078.052-.226,0-.322-.131s-.1-.279,0-.34c.1-.078.244-.017.322.113a.255.255,0,0,1,0,.357Zm-.566-.844c-.078.078-.209.035-.3-.052-.1-.113-.113-.244-.035-.3.078-.078.209-.035.3.052C11.212,25.611,11.23,25.742,11.152,25.8Zm-.583-.644a.164.164,0,0,1-.244.035c-.113-.052-.165-.148-.131-.226a.2.2,0,0,1,.244-.035C10.551,24.993,10.6,25.089,10.568,25.158Z" fill="#fff"/>
</svg>
