<svg xmlns="http://www.w3.org/2000/svg" width="144.713" height="122.11" viewBox="0 0 144.713 122.11">
  <path id="projetos" d="M71.46,32.968a3.392,3.392,0,0,0-4.8,0l-18,17.894L42.24,44.61a3.392,3.392,0,0,0-4.8,0L33,49.053a3.392,3.392,0,0,0,0,4.8l13.451,13.4a3.612,3.612,0,0,0,4.977,0l4.406-4.415,20.407-20.4a3.417,3.417,0,0,0,.025-4.8Zm0,44.994a3.392,3.392,0,0,0-4.8,0l-18,18.01L42.24,89.726a3.392,3.392,0,0,0-4.8,0L33,94.16a3.392,3.392,0,0,0,0,4.8l13.417,13.426a3.609,3.609,0,0,0,4.975,0l4.437-4.435L76.234,87.544a3.391,3.391,0,0,0,.025-4.777ZM50.089,126.947a13.568,13.568,0,1,0,0,27.134,13.567,13.567,0,0,0,0-27.134Zm122.1,4.522H90.79a4.522,4.522,0,0,0-4.522,4.522v9.045a4.522,4.522,0,0,0,4.522,4.522h81.4a4.522,4.522,0,0,0,4.522-4.522v-9.045a4.522,4.522,0,0,0-4.522-4.522Zm0-90.446H90.79a4.522,4.522,0,0,0-4.522,4.522V54.59a4.522,4.522,0,0,0,4.522,4.522h81.4a4.522,4.522,0,0,0,4.522-4.522V45.546a4.522,4.522,0,0,0-4.522-4.522Zm0,45.223H90.79a4.522,4.522,0,0,0-4.522,4.522v9.045a4.522,4.522,0,0,0,4.522,4.522h81.4a4.522,4.522,0,0,0,4.522-4.522V90.769a4.522,4.522,0,0,0-4.522-4.522Z" transform="translate(-32 -31.971)" fill="#7744AA"/>
</svg>
