<svg xmlns="http://www.w3.org/2000/svg" xmlns:xlink="http://www.w3.org/1999/xlink" width="122.11" height="122.11" viewBox="0 0 122.11 122.11">
  <defs>
    <clipPath id="clip-path">
      <rect id="Rectangle_1" data-name="Rectangle 1" width="122.11" height="122.11" transform="translate(32 0.604)" fill="#fff"/>
    </clipPath>
  </defs>
  <g id="skill" transform="translate(-32 -0.604)" clip-path="url(#clip-path)">
    <path id="Path_1" data-name="Path 1" d="M141.455,82.489a75.88,75.88,0,0,1-19.768,11.748L134.71,116.8l12.921,5.518a3.832,3.832,0,0,0,5.31-3.066l1.681-13.951L141.455,82.489Zm10.176-22.647a3.844,3.844,0,0,0-1.449-5.362l-6.723-3.729a3.838,3.838,0,0,0-5.092,1.37A53.7,53.7,0,0,1,93.312,76.64a53.254,53.254,0,0,1-16.624-2.761L92.821,45.934c.168,0,.321.05.489.05s.323-.046.489-.05l12.236,21.2A45.62,45.62,0,0,0,125.82,55.413l-12.4-21.486A22.7,22.7,0,0,0,116.3,22.992a22.992,22.992,0,0,0-45.984,0,22.72,22.72,0,0,0,2.886,10.936L56.848,62.263a53.549,53.549,0,0,1-8.066-9.341,3.842,3.842,0,0,0-5.121-1.277l-6.646,3.849a3.84,3.84,0,0,0-1.351,5.382A68.72,68.72,0,0,0,49.072,75.73L32,105.3l1.681,13.951a3.832,3.832,0,0,0,5.31,3.066L51.912,116.8l16.957-29.37a68.749,68.749,0,0,0,24.444,4.541A69.076,69.076,0,0,0,151.631,59.842ZM93.312,15.328a7.664,7.664,0,1,1-7.664,7.664A7.665,7.665,0,0,1,93.312,15.328Z" transform="translate(0 0.09)" fill="#7a49a3"/>
  </g>
</svg>
